<svg xmlns="http://www.w3.org/2000/svg" xmlns:xlink="http://www.w3.org/1999/xlink" id="svg" version="1.1" width="400" height="155.3398058252427" viewBox="0, 0, 400,155.3398058252427"><g id="svgg"><path id="path0" d="M5.764 9.672 C 4.334 10.106,3.931 9.157,13.082 26.917 C 13.838 28.383,15.377 31.383,16.503 33.583 C 17.628 35.783,19.765 39.946,21.251 42.833 C 22.737 45.721,24.836 49.808,25.915 51.917 C 26.994 54.025,28.457 56.875,29.165 58.250 C 29.873 59.625,31.261 62.325,32.249 64.250 C 33.238 66.175,34.722 69.063,35.549 70.667 C 36.376 72.271,37.629 74.708,38.335 76.083 C 41.828 82.890,43.128 85.417,44.081 87.250 C 44.654 88.350,46.229 91.425,47.583 94.083 C 48.937 96.742,50.250 99.292,50.501 99.750 C 50.752 100.208,52.214 103.058,53.751 106.083 C 57.080 112.636,57.082 112.639,57.609 112.771 C 58.611 113.023,59.227 112.048,62.408 105.191 C 62.988 103.940,64.003 101.792,64.664 100.417 C 65.325 99.042,66.338 96.904,66.915 95.667 C 67.492 94.429,68.467 92.367,69.082 91.083 C 69.696 89.800,71.045 86.950,72.081 84.750 C 73.116 82.550,74.354 79.925,74.832 78.917 C 75.310 77.908,76.265 75.883,76.954 74.417 C 77.642 72.950,78.618 70.887,79.121 69.833 C 80.243 67.483,81.484 64.740,82.006 63.456 C 82.469 62.317,82.445 62.300,83.333 64.417 C 84.096 66.233,84.473 67.046,89.592 77.917 C 91.491 81.950,93.815 86.900,94.755 88.917 C 95.695 90.933,96.818 93.333,97.249 94.250 C 97.680 95.167,98.279 96.442,98.580 97.083 C 98.880 97.725,100.027 100.162,101.127 102.500 C 102.228 104.837,103.706 107.987,104.413 109.500 C 106.632 114.249,106.806 114.209,109.839 108.250 C 110.959 106.050,112.682 102.675,113.668 100.750 C 114.655 98.825,116.530 95.150,117.836 92.583 C 123.076 82.282,124.777 78.946,126.333 75.917 C 127.228 74.175,129.029 70.650,130.334 68.083 C 134.854 59.195,137.384 54.236,139.004 51.083 C 139.900 49.342,143.537 42.217,147.086 35.250 C 150.636 28.283,154.844 20.025,156.437 16.899 C 159.907 10.089,159.962 9.826,157.958 9.586 C 155.816 9.329,130.920 9.571,130.493 9.852 C 130.225 10.028,129.682 10.983,128.928 12.602 C 128.293 13.967,127.180 16.321,126.454 17.833 C 125.729 19.346,124.626 21.671,124.003 23.000 C 123.380 24.329,122.299 26.608,121.602 28.064 C 120.904 29.520,120.333 30.729,120.333 30.752 C 120.333 30.774,119.800 31.908,119.149 33.271 C 117.660 36.386,115.154 41.664,114.332 43.417 C 113.988 44.150,112.235 47.851,110.437 51.642 C 108.638 55.432,107.167 58.601,107.167 58.684 C 107.167 58.766,107.094 58.833,107.006 58.833 C 106.846 58.833,106.471 58.086,102.248 49.333 C 101.032 46.813,99.270 43.175,98.332 41.250 C 97.395 39.325,96.159 36.775,95.585 35.583 C 94.579 33.495,90.843 25.776,88.164 20.250 C 83.046 9.696,83.215 10.018,82.764 9.905 C 81.873 9.682,81.523 9.931,80.933 11.213 C 80.628 11.875,79.477 14.292,78.376 16.583 C 77.275 18.875,75.942 21.650,75.415 22.750 C 74.887 23.850,73.988 25.725,73.416 26.917 C 72.844 28.108,71.494 30.921,70.417 33.167 C 69.339 35.412,68.287 37.625,68.079 38.083 C 67.871 38.542,66.943 40.482,66.017 42.396 C 65.091 44.310,64.333 45.895,64.333 45.917 C 64.333 45.940,63.649 47.374,62.812 49.104 C 59.984 54.953,58.971 57.081,58.717 57.708 C 58.578 58.052,58.411 58.333,58.347 58.333 C 58.283 58.333,56.252 54.340,53.834 49.458 C 36.737 14.947,34.192 9.876,33.899 9.735 C 33.487 9.537,6.409 9.476,5.764 9.672 M98.099 129.359 C 98.174 129.481,98.145 129.506,98.018 129.428 C 97.206 128.926,96.901 141.678,97.712 142.246 C 98.118 142.531,100.167 142.608,100.167 142.339 C 100.167 142.250,100.269 142.217,100.395 142.265 C 100.792 142.417,100.908 141.822,100.997 139.192 L 101.083 136.634 103.417 138.864 C 107.676 142.934,107.554 142.833,108.204 142.833 C 108.848 142.833,109.261 142.486,109.104 142.077 C 109.046 141.927,109.074 141.859,109.169 141.918 C 109.276 141.984,109.332 140.028,109.331 136.302 C 109.328 130.427,109.262 129.773,108.661 129.734 C 108.527 129.725,108.285 129.661,108.124 129.591 C 107.963 129.521,107.551 129.510,107.208 129.567 C 106.864 129.624,106.457 129.675,106.303 129.680 C 105.700 129.700,105.586 130.148,105.500 132.817 L 105.417 135.417 103.569 133.625 C 102.553 132.640,101.665 131.890,101.597 131.959 C 101.528 132.027,101.497 132.001,101.528 131.901 C 101.597 131.674,99.389 129.537,98.864 129.323 C 98.331 129.107,97.954 129.124,98.099 129.359 M90.547 129.675 C 89.696 129.937,89.640 130.390,89.698 136.473 L 89.750 141.863 90.143 142.182 C 90.703 142.635,92.630 142.635,93.190 142.181 L 93.583 141.863 93.583 136.021 C 93.583 130.860,93.552 130.147,93.314 129.909 C 92.985 129.580,91.314 129.439,90.547 129.675 M112.766 129.623 C 112.698 129.690,112.520 129.747,112.369 129.748 C 112.218 129.749,111.999 129.938,111.883 130.167 C 111.437 131.047,111.756 132.747,112.369 132.752 C 112.520 132.753,112.698 132.810,112.766 132.877 C 112.834 132.945,113.289 133.000,113.778 133.000 L 114.667 133.000 114.667 137.333 C 114.667 140.111,114.726 141.667,114.833 141.667 C 114.925 141.667,114.991 141.723,114.980 141.792 C 114.922 142.161,115.027 142.359,115.239 142.277 C 115.371 142.227,115.502 142.255,115.531 142.340 C 115.562 142.431,115.937 142.438,116.458 142.355 C 116.940 142.279,117.333 142.280,117.333 142.358 C 117.333 142.602,117.703 142.513,117.952 142.208 C 118.084 142.048,118.137 142.022,118.070 142.151 C 117.987 142.310,118.014 142.345,118.152 142.259 C 118.264 142.190,118.316 142.028,118.267 141.900 C 118.217 141.772,118.250 141.667,118.339 141.667 C 118.439 141.667,118.500 140.018,118.500 137.333 L 118.500 133.000 119.408 133.000 C 119.985 133.000,120.366 132.919,120.450 132.779 C 120.523 132.658,120.725 132.506,120.899 132.442 C 121.180 132.338,121.189 132.357,120.982 132.621 C 120.770 132.891,120.776 132.897,121.049 132.682 C 121.214 132.552,121.310 132.346,121.263 132.223 C 121.216 132.100,121.250 132.000,121.339 132.000 C 121.427 132.000,121.500 131.662,121.500 131.250 C 121.500 130.833,121.422 130.500,121.323 130.500 C 121.226 130.500,121.195 130.422,121.255 130.326 C 121.402 130.087,120.997 129.632,120.729 129.735 C 120.609 129.781,120.466 129.747,120.412 129.659 C 120.297 129.472,112.952 129.437,112.766 129.623 M124.946 129.610 C 124.886 129.670,124.909 129.807,124.999 129.915 C 125.143 130.089,124.903 130.124,124.333 130.011 C 124.287 130.002,124.362 129.922,124.500 129.833 C 124.638 129.744,124.665 129.671,124.562 129.669 C 124.209 129.664,123.924 130.158,124.150 130.382 C 124.309 130.540,124.330 130.511,124.244 130.250 C 124.159 129.991,124.173 129.970,124.307 130.159 C 124.523 130.464,124.399 130.681,124.078 130.558 C 123.866 130.477,123.833 131.199,123.833 135.982 C 123.833 139.017,123.890 141.500,123.958 141.500 C 124.027 141.500,124.063 139.100,124.037 136.167 C 124.006 132.522,124.046 130.833,124.166 130.833 C 124.285 130.833,124.337 132.544,124.329 136.169 C 124.322 139.103,124.369 141.590,124.434 141.695 C 124.504 141.807,124.478 141.839,124.371 141.773 C 124.090 141.600,124.007 141.890,124.267 142.132 C 124.395 142.250,124.501 142.287,124.503 142.215 C 124.504 142.143,124.563 142.174,124.634 142.285 C 124.766 142.494,125.500 142.395,125.500 142.168 C 125.500 142.098,125.819 142.072,126.208 142.110 C 126.598 142.147,127.404 142.110,128.000 142.027 L 129.083 141.876 127.833 141.835 C 126.877 141.803,126.701 141.764,127.083 141.667 L 127.583 141.539 127.083 141.500 L 126.583 141.461 127.083 141.333 L 127.583 141.206 127.083 141.167 L 126.583 141.127 127.083 141.000 C 127.528 140.887,127.539 140.871,127.181 140.853 C 126.959 140.842,126.825 140.786,126.883 140.728 C 126.941 140.670,126.908 140.474,126.811 140.291 C 126.676 140.039,126.682 139.990,126.835 140.085 C 126.947 140.154,127.103 140.107,127.185 139.980 C 127.309 139.787,127.360 139.790,127.497 140.000 C 127.631 140.204,127.662 140.183,127.664 139.885 C 127.666 139.684,127.580 139.466,127.474 139.401 C 127.355 139.327,127.327 139.355,127.401 139.474 C 127.466 139.580,127.434 139.667,127.329 139.667 C 127.225 139.667,127.170 139.573,127.208 139.458 C 127.310 139.150,130.493 139.062,130.703 139.362 C 130.826 139.537,130.845 139.531,130.791 139.333 C 130.738 139.139,130.383 139.073,129.195 139.035 L 127.667 138.987 127.667 138.077 C 127.667 137.535,127.594 137.167,127.486 137.167 C 127.387 137.167,127.336 137.076,127.373 136.965 C 127.413 136.845,127.740 136.767,128.178 136.772 C 128.758 136.780,128.794 136.767,128.345 136.713 C 127.796 136.646,126.876 136.167,127.296 136.167 C 127.408 136.167,127.500 136.050,127.500 135.907 C 127.500 135.764,127.425 135.693,127.333 135.750 C 127.242 135.807,127.167 135.774,127.167 135.677 C 127.167 135.579,127.054 135.500,126.917 135.500 C 126.779 135.500,126.667 135.430,126.667 135.344 C 126.667 135.259,126.860 135.224,127.097 135.267 C 127.344 135.311,127.485 135.277,127.429 135.187 C 127.375 135.100,127.425 134.990,127.541 134.944 C 127.707 134.877,127.707 134.857,127.542 134.846 C 126.943 134.809,127.448 134.498,128.125 134.488 C 128.721 134.479,128.834 134.441,128.583 134.333 C 128.351 134.234,128.592 134.187,129.375 134.178 C 130.656 134.165,130.771 134.186,130.696 134.417 C 130.667 134.508,130.737 134.491,130.852 134.377 C 131.019 134.213,131.125 134.228,131.368 134.448 C 131.603 134.661,131.720 134.680,131.871 134.529 C 132.021 134.379,132.018 134.333,131.857 134.333 C 131.733 134.333,131.698 134.248,131.772 134.125 C 131.866 133.969,131.830 133.971,131.630 134.133 C 131.451 134.279,131.328 134.292,131.255 134.175 C 131.196 134.079,131.239 134.000,131.351 134.000 C 131.464 134.000,131.507 133.952,131.448 133.893 C 131.390 133.834,131.234 133.875,131.102 133.984 C 130.939 134.120,130.829 134.127,130.755 134.008 C 130.693 133.907,130.016 133.833,129.157 133.833 C 127.678 133.833,127.667 133.830,127.667 133.417 L 127.667 133.000 129.417 133.000 C 130.977 133.000,131.165 132.968,131.154 132.708 C 131.145 132.523,131.109 132.495,131.054 132.632 C 130.988 132.797,130.913 132.802,130.734 132.653 C 130.557 132.506,130.500 132.506,130.500 132.653 C 130.500 132.932,127.635 132.825,127.541 132.542 C 127.494 132.400,127.571 132.371,127.778 132.449 C 128.069 132.559,128.070 132.551,127.792 132.270 C 127.631 132.109,127.500 131.875,127.500 131.752 C 127.500 131.629,127.406 131.484,127.292 131.431 C 127.125 131.353,127.125 131.314,127.292 131.236 C 127.643 131.072,127.524 130.859,127.042 130.786 L 126.583 130.717 127.042 130.692 C 127.768 130.652,127.575 130.382,126.730 130.256 C 125.243 130.033,126.228 129.813,128.477 129.865 C 129.681 129.894,130.667 129.852,130.667 129.774 C 130.667 129.695,130.783 129.676,130.925 129.730 C 131.074 129.787,131.141 129.759,131.082 129.665 C 130.969 129.482,125.126 129.429,124.946 129.610 M136.587 129.672 C 136.646 129.767,137.018 129.824,137.414 129.797 C 138.350 129.736,138.205 129.500,137.230 129.500 C 136.756 129.500,136.520 129.563,136.587 129.672 M146.772 129.630 C 146.679 129.782,148.134 129.755,148.286 129.602 C 148.343 129.546,148.043 129.500,147.621 129.500 C 147.199 129.500,146.817 129.559,146.772 129.630 M157.711 129.620 C 157.964 129.658,158.339 129.657,158.544 129.617 C 158.749 129.578,158.542 129.546,158.083 129.548 C 157.625 129.549,157.457 129.581,157.711 129.620 M131.555 129.781 C 131.622 129.893,131.545 130.054,131.379 130.151 C 131.216 130.246,131.162 130.325,131.258 130.328 C 131.355 130.331,131.523 130.243,131.633 130.133 C 131.744 130.022,131.833 130.007,131.833 130.100 C 131.833 130.192,131.746 130.354,131.639 130.461 C 131.491 130.609,131.508 130.680,131.713 130.759 C 131.923 130.839,131.947 130.951,131.824 131.274 C 131.709 131.577,131.719 131.654,131.862 131.566 C 131.993 131.485,132.022 131.537,131.950 131.723 C 131.892 131.875,131.916 132.000,132.005 132.000 C 132.094 132.000,132.167 131.662,132.167 131.250 C 132.167 130.837,132.094 130.500,132.005 130.500 C 131.916 130.500,131.882 130.400,131.929 130.277 C 131.977 130.154,131.885 129.948,131.726 129.818 C 131.566 129.689,131.489 129.672,131.555 129.781 M138.842 134.833 L 138.819 139.167 140.285 139.133 L 141.750 139.100 140.458 139.043 L 139.167 138.986 139.167 134.743 C 139.167 132.311,139.102 130.500,139.015 130.500 C 138.929 130.500,138.854 132.364,138.842 134.833 M145.741 136.083 C 145.742 139.200,145.764 140.451,145.791 138.864 C 145.819 137.277,145.819 134.727,145.791 133.198 C 145.764 131.668,145.741 132.967,145.741 136.083 M121.333 131.260 C 121.333 131.494,121.265 131.644,121.182 131.593 C 121.099 131.542,121.070 131.350,121.118 131.167 C 121.238 130.708,121.333 130.749,121.333 131.260 M156.241 136.000 C 156.241 138.887,156.264 140.069,156.291 138.625 C 156.319 137.181,156.319 134.819,156.291 133.375 C 156.264 131.931,156.241 133.112,156.241 136.000 M127.500 132.119 C 127.500 132.165,127.388 132.159,127.250 132.106 C 126.963 131.996,126.919 132.185,127.172 132.439 C 127.291 132.557,127.272 132.611,127.113 132.611 C 126.931 132.611,126.841 132.117,126.979 131.880 C 127.018 131.813,127.500 132.034,127.500 132.119 M131.448 132.236 C 131.273 132.681,131.561 132.913,131.849 132.558 C 131.978 132.399,131.995 132.322,131.888 132.387 C 131.772 132.456,131.668 132.384,131.633 132.210 C 131.579 131.942,131.563 131.944,131.448 132.236 M126.948 133.625 C 126.906 133.785,126.872 133.654,126.872 133.333 C 126.872 133.012,126.906 132.881,126.948 133.042 C 126.990 133.202,126.990 133.465,126.948 133.625 M169.794 132.951 C 170.001 132.991,170.301 132.990,170.460 132.948 C 170.620 132.906,170.450 132.874,170.083 132.875 C 169.717 132.877,169.586 132.911,169.794 132.951 M131.889 135.667 C 131.877 136.125,131.934 136.500,132.017 136.500 C 132.099 136.500,132.167 136.125,132.167 135.667 C 132.167 135.208,132.109 134.833,132.039 134.833 C 131.968 134.833,131.901 135.208,131.889 135.667 M163.223 136.000 C 163.223 136.688,163.252 136.969,163.288 136.625 C 163.324 136.281,163.324 135.719,163.288 135.375 C 163.252 135.031,163.223 135.313,163.223 136.000 M167.048 136.083 C 167.049 136.542,167.081 136.709,167.120 136.456 C 167.158 136.203,167.157 135.828,167.117 135.623 C 167.078 135.418,167.046 135.625,167.048 136.083 M169.712 136.667 C 169.712 137.079,169.745 137.248,169.784 137.042 C 169.824 136.835,169.824 136.498,169.784 136.292 C 169.745 136.085,169.712 136.254,169.712 136.667 M131.335 136.664 C 131.209 136.839,131.050 136.947,130.981 136.905 C 130.913 136.863,130.802 136.916,130.736 137.023 C 130.664 137.139,130.687 137.174,130.793 137.108 C 130.891 137.047,131.010 137.092,131.056 137.207 C 131.116 137.354,131.182 137.363,131.279 137.236 C 131.355 137.136,131.553 136.981,131.719 136.890 C 131.970 136.753,131.983 136.693,131.793 136.535 C 131.616 136.389,131.512 136.418,131.335 136.664 M194.234 139.000 C 194.234 140.421,194.259 141.002,194.291 140.292 C 194.322 139.581,194.322 138.419,194.291 137.708 C 194.259 136.998,194.234 137.579,194.234 139.000 M126.955 138.455 C 126.919 138.800,126.889 138.558,126.888 137.917 C 126.887 137.275,126.917 136.992,126.954 137.288 C 126.990 137.584,126.991 138.109,126.955 138.455 M150.129 139.122 C 150.521 139.157,151.121 139.157,151.463 139.121 C 151.804 139.085,151.483 139.057,150.750 139.057 C 150.017 139.058,149.737 139.087,150.129 139.122 M169.875 139.282 C 170.035 139.323,170.298 139.323,170.458 139.282 C 170.619 139.240,170.487 139.205,170.167 139.205 C 169.846 139.205,169.715 139.240,169.875 139.282 M131.500 139.500 C 131.667 139.608,131.681 139.662,131.542 139.664 C 131.427 139.666,131.333 139.744,131.333 139.839 C 131.333 139.953,131.455 139.946,131.689 139.821 C 132.041 139.633,131.875 139.338,131.417 139.338 C 131.325 139.338,131.362 139.411,131.500 139.500 M105.250 140.333 C 105.608 140.700,105.863 141.000,105.818 141.000 C 105.772 141.000,105.441 140.700,105.083 140.333 C 104.725 139.967,104.470 139.667,104.516 139.667 C 104.562 139.667,104.892 139.967,105.250 140.333 M131.889 140.833 C 131.877 141.292,131.934 141.667,132.017 141.667 C 132.099 141.667,132.167 141.292,132.167 140.833 C 132.167 140.375,132.109 140.000,132.039 140.000 C 131.968 140.000,131.901 140.375,131.889 140.833 M131.335 141.831 C 131.209 142.006,131.050 142.114,130.981 142.072 C 130.913 142.029,130.802 142.082,130.736 142.190 C 130.664 142.306,130.687 142.340,130.793 142.275 C 130.891 142.214,131.010 142.259,131.056 142.374 C 131.116 142.521,131.182 142.529,131.279 142.402 C 131.355 142.303,131.553 142.147,131.719 142.057 C 131.970 141.919,131.983 141.860,131.793 141.702 C 131.616 141.556,131.512 141.585,131.335 141.831 M135.422 141.658 C 135.362 141.755,135.393 141.833,135.490 141.833 C 135.587 141.833,135.648 141.901,135.625 141.983 C 135.602 142.066,135.650 142.134,135.731 142.136 C 135.813 142.137,135.940 142.236,136.014 142.356 C 136.088 142.476,136.187 142.535,136.234 142.488 C 136.281 142.441,136.142 142.196,135.925 141.943 C 135.689 141.668,135.486 141.554,135.422 141.658 " stroke="none" fill="#e41c73" fill-rule="evenodd"/><path id="path1" d="M208.296 9.593 C 208.231 9.658,207.782 9.700,207.298 9.687 C 206.813 9.674,205.854 9.743,205.167 9.840 C 202.953 10.154,200.757 10.520,200.500 10.618 C 200.218 10.725,200.009 10.769,199.142 10.904 C 197.816 11.111,191.748 13.028,191.500 13.319 C 191.454 13.373,191.304 13.437,191.167 13.461 C 190.699 13.545,189.333 14.223,189.333 14.372 C 189.333 14.453,189.263 14.476,189.176 14.423 C 188.952 14.284,185.501 16.033,185.620 16.225 C 185.674 16.313,185.634 16.333,185.532 16.270 C 185.353 16.159,184.026 16.883,183.815 17.206 C 183.759 17.292,183.663 17.352,183.602 17.339 C 183.353 17.289,182.188 18.066,182.283 18.219 C 182.339 18.310,182.307 18.337,182.211 18.278 C 181.850 18.054,175.567 22.871,175.777 23.210 C 175.836 23.306,175.813 23.341,175.726 23.287 C 175.572 23.191,172.667 25.825,172.667 26.060 C 172.667 26.124,172.404 26.407,172.084 26.689 C 171.763 26.970,171.544 27.270,171.596 27.354 C 171.649 27.439,171.620 27.488,171.532 27.462 C 171.240 27.378,167.749 31.694,167.949 31.893 C 168.008 31.952,167.979 32.000,167.886 32.000 C 167.713 32.000,166.380 33.929,165.267 35.789 C 163.852 38.156,161.019 44.500,160.760 45.886 C 160.722 46.086,160.676 46.269,160.658 46.292 C 160.640 46.315,160.614 46.390,160.602 46.458 C 160.589 46.527,160.518 46.678,160.445 46.794 C 160.371 46.910,160.305 47.228,160.297 47.502 C 160.289 47.776,160.207 48.000,160.114 48.000 C 160.021 48.000,159.994 48.049,160.054 48.110 C 160.114 48.170,160.095 48.302,160.012 48.403 C 159.777 48.685,158.663 53.727,158.682 54.417 C 158.687 54.600,158.617 55.050,158.526 55.417 C 158.099 57.140,157.864 64.548,158.162 66.917 C 158.265 67.742,158.344 68.663,158.336 68.965 C 158.328 69.267,158.375 69.598,158.439 69.702 C 158.567 69.910,158.657 70.625,158.657 71.446 C 158.658 71.737,158.736 72.023,158.832 72.082 C 158.927 72.141,158.966 72.253,158.919 72.330 C 158.839 72.459,159.091 73.924,159.292 74.500 C 159.340 74.637,159.395 74.862,159.414 75.000 C 159.548 75.971,159.885 77.167,160.026 77.167 C 160.119 77.167,160.161 77.260,160.121 77.375 C 160.081 77.490,160.120 77.771,160.209 78.000 C 160.298 78.229,160.386 78.529,160.405 78.667 C 160.484 79.250,160.714 79.833,160.865 79.833 C 160.955 79.833,160.995 79.927,160.954 80.042 C 160.880 80.252,161.660 82.543,162.035 83.218 C 162.147 83.419,162.247 83.621,162.258 83.667 C 162.396 84.257,162.559 84.667,162.657 84.667 C 162.723 84.667,162.778 84.761,162.778 84.876 C 162.778 85.175,164.506 88.667,164.655 88.667 C 164.722 88.667,164.778 88.766,164.778 88.888 C 164.778 89.424,168.983 95.667,169.344 95.667 C 169.430 95.667,169.500 95.751,169.500 95.855 C 169.500 96.433,175.526 102.773,175.872 102.559 C 175.972 102.498,176.004 102.526,175.944 102.622 C 175.833 102.802,177.309 104.116,177.538 104.042 C 177.609 104.019,177.667 104.072,177.667 104.159 C 177.667 104.381,180.270 106.341,180.397 106.214 C 180.453 106.158,180.500 106.190,180.500 106.286 C 180.500 106.485,182.668 107.939,182.869 107.875 C 182.941 107.852,183.000 107.900,183.000 107.981 C 183.000 108.139,185.119 109.447,185.513 109.532 C 185.643 109.560,185.787 109.630,185.833 109.687 C 186.016 109.915,188.968 111.310,189.064 111.214 C 189.120 111.157,189.167 111.203,189.167 111.315 C 189.167 111.428,189.242 111.473,189.333 111.417 C 189.425 111.360,189.500 111.381,189.500 111.464 C 189.500 111.600,192.726 112.949,193.333 113.067 C 193.471 113.094,193.782 113.197,194.025 113.297 C 195.032 113.712,197.345 114.346,197.500 114.250 C 197.592 114.193,197.667 114.215,197.667 114.297 C 197.667 114.492,200.926 115.232,201.157 115.089 C 201.254 115.029,201.333 115.046,201.333 115.127 C 201.333 115.207,201.915 115.367,202.625 115.482 C 209.281 116.556,216.623 116.323,223.250 114.828 C 225.958 114.217,230.343 112.818,230.213 112.607 C 230.159 112.520,230.201 112.502,230.307 112.567 C 230.574 112.732,236.152 110.288,236.500 109.854 C 236.546 109.797,236.675 109.732,236.787 109.710 C 237.113 109.646,240.667 107.500,241.001 107.165 C 241.169 106.998,241.331 106.887,241.363 106.918 C 241.484 107.039,243.320 105.541,243.205 105.414 C 243.138 105.340,243.169 105.329,243.275 105.389 C 243.380 105.449,243.707 105.274,244.001 104.999 C 244.295 104.725,244.587 104.500,244.650 104.500 C 244.713 104.500,245.156 104.138,245.634 103.696 C 246.113 103.254,246.529 102.918,246.559 102.948 C 246.589 102.978,247.338 102.252,248.223 101.335 C 249.109 100.418,249.833 99.704,249.833 99.747 C 249.833 99.816,250.350 99.266,251.616 97.849 C 251.817 97.624,251.943 97.376,251.895 97.299 C 251.848 97.222,251.874 97.179,251.955 97.204 C 252.035 97.229,252.348 96.969,252.651 96.625 C 252.954 96.281,253.163 96.000,253.117 96.000 C 253.071 96.000,253.250 95.767,253.516 95.483 C 253.781 95.199,253.956 94.897,253.904 94.812 C 253.851 94.728,253.870 94.679,253.946 94.704 C 254.022 94.729,254.096 94.683,254.111 94.602 C 254.126 94.521,254.226 94.400,254.333 94.334 C 254.649 94.138,256.986 90.612,256.896 90.467 C 256.851 90.393,256.877 90.333,256.955 90.333 C 257.189 90.333,258.356 88.172,258.231 87.970 C 258.167 87.866,258.189 87.828,258.281 87.884 C 258.697 88.141,262.564 78.842,262.252 78.336 C 262.204 78.259,262.250 78.167,262.354 78.132 C 262.459 78.097,262.553 77.828,262.564 77.535 C 262.575 77.241,262.633 77.001,262.695 77.000 C 262.849 77.000,263.191 75.340,263.075 75.153 C 263.023 75.069,263.047 75.000,263.129 75.000 C 263.290 75.000,263.913 72.011,264.172 69.998 C 264.701 65.885,264.751 59.527,264.277 56.850 C 264.221 56.538,264.130 55.751,264.075 55.101 C 264.019 54.451,263.923 53.881,263.861 53.835 C 263.800 53.788,263.729 53.450,263.704 53.083 C 263.657 52.396,262.548 47.713,262.363 47.417 C 262.305 47.325,262.233 47.063,262.202 46.833 C 262.055 45.762,259.806 40.250,259.599 40.457 C 259.535 40.521,259.532 40.444,259.592 40.287 C 259.656 40.122,259.624 40.000,259.518 40.000 C 259.416 40.000,259.351 39.944,259.373 39.875 C 259.431 39.692,258.980 38.667,258.841 38.667 C 258.776 38.667,258.722 38.568,258.722 38.447 C 258.722 37.488,252.523 28.313,251.976 28.462 C 251.884 28.488,251.848 28.445,251.896 28.367 C 251.975 28.239,248.766 24.559,248.611 24.601 C 248.575 24.611,247.879 23.988,247.064 23.218 C 245.592 21.826,241.611 18.739,241.438 18.856 C 241.388 18.889,241.251 18.791,241.132 18.638 C 240.584 17.930,232.839 13.707,232.487 13.925 C 232.418 13.967,232.337 13.938,232.306 13.860 C 232.183 13.548,227.112 11.744,226.837 11.914 C 226.743 11.972,226.667 11.928,226.667 11.815 C 226.667 11.703,226.617 11.660,226.557 11.721 C 226.497 11.781,226.365 11.766,226.265 11.688 C 226.000 11.479,222.697 10.671,221.917 10.624 C 221.550 10.602,221.210 10.530,221.161 10.465 C 220.796 9.980,208.727 9.162,208.296 9.593 M217.667 19.244 C 253.534 24.790,267.982 68.370,242.426 93.926 C 216.446 119.906,171.854 104.396,167.584 67.895 C 164.802 44.110,182.211 21.841,205.667 19.180 C 206.537 19.081,207.475 18.969,207.750 18.931 C 208.953 18.764,216.005 18.987,217.667 19.244 M210.750 26.987 C 209.491 27.516,209.129 31.978,210.253 33.102 C 211.987 34.836,213.738 31.526,212.844 28.206 C 212.582 27.233,211.569 26.643,210.750 26.987 M223.500 30.574 C 222.897 30.903,221.000 34.293,221.000 35.040 C 221.000 36.236,222.504 36.951,223.447 36.205 C 223.912 35.836,225.642 32.833,225.776 32.159 C 226.026 30.914,224.642 29.950,223.500 30.574 M197.325 30.926 C 196.235 32.086,198.459 36.500,200.133 36.500 C 201.779 36.500,202.003 35.196,200.751 32.917 C 199.393 30.446,198.347 29.838,197.325 30.926 M206.620 37.585 C 205.247 37.931,203.508 38.772,201.237 40.188 C 197.831 42.310,196.833 43.610,196.833 45.921 C 196.833 47.041,196.719 47.222,195.677 47.750 C 193.874 48.665,192.546 50.830,192.360 53.159 C 192.263 54.374,192.164 54.735,191.780 55.290 C 189.483 58.604,190.489 62.804,195.011 68.772 C 197.679 72.294,199.528 75.816,200.858 79.908 C 201.213 81.004,201.597 81.959,201.711 82.031 C 202.269 82.385,207.804 82.181,208.074 81.796 C 208.643 80.984,208.239 70.430,207.607 69.597 C 207.499 69.455,206.912 69.270,206.250 69.169 C 202.028 68.527,200.437 64.604,203.748 63.001 C 205.887 61.965,207.693 63.021,208.911 66.018 C 209.444 67.330,209.440 67.328,211.255 67.331 C 212.773 67.333,213.500 67.100,213.500 66.611 C 213.500 66.157,214.664 64.048,215.188 63.552 C 217.228 61.622,220.500 62.925,220.500 65.667 C 220.500 67.541,219.100 68.740,216.414 69.166 C 214.574 69.458,214.531 69.621,214.384 76.840 C 214.264 82.747,213.905 82.167,217.690 82.167 C 221.209 82.167,220.968 82.311,221.815 79.705 C 223.099 75.752,224.935 72.388,228.036 68.305 C 232.165 62.869,233.135 58.802,231.093 55.493 C 230.625 54.736,230.500 54.361,230.500 53.718 C 230.500 51.200,229.125 48.890,226.916 47.699 L 226.083 47.250 225.982 45.883 C 225.795 43.369,225.183 42.553,221.917 40.457 C 217.249 37.463,214.635 36.784,212.262 37.947 L 211.379 38.380 210.449 37.925 C 209.312 37.369,207.953 37.248,206.620 37.585 M209.314 40.105 C 210.018 40.598,210.167 41.287,210.167 44.045 C 210.167 46.894,210.129 47.000,209.122 47.000 C 207.620 47.000,206.919 48.646,208.205 49.154 C 208.413 49.236,208.831 49.395,209.133 49.508 C 210.114 49.875,210.167 50.159,210.167 55.069 C 210.167 60.236,210.345 59.835,208.053 59.831 C 206.285 59.828,205.887 59.654,206.500 59.152 C 208.086 57.853,208.398 57.294,207.933 56.585 C 207.545 55.993,206.953 55.894,206.295 56.310 C 203.572 58.031,201.954 58.078,199.851 56.498 C 198.877 55.766,198.394 55.679,197.831 56.135 C 197.064 56.756,197.455 57.776,198.841 58.771 C 199.723 59.405,199.820 59.572,199.403 59.732 C 198.949 59.906,193.666 59.844,193.322 59.661 C 192.638 59.294,193.074 57.546,194.208 56.115 C 194.726 55.460,194.751 55.364,194.762 53.923 C 194.799 49.303,199.791 47.677,202.418 51.430 C 203.328 52.730,204.388 52.908,204.832 51.836 C 205.407 50.449,202.892 47.773,200.434 47.154 C 199.178 46.837,198.877 46.071,199.484 44.734 C 200.378 42.766,203.121 42.631,204.410 44.490 C 204.925 45.233,205.472 45.466,206.145 45.229 C 207.184 44.864,206.924 43.482,205.566 42.150 C 204.593 41.195,204.623 40.972,205.792 40.455 C 207.353 39.763,208.643 39.635,209.314 40.105 M216.877 40.389 C 218.143 40.953,218.222 41.211,217.366 41.975 C 215.680 43.479,215.529 45.333,217.094 45.333 C 217.538 45.333,217.758 45.187,218.317 44.519 C 220.205 42.264,223.508 43.063,223.497 45.773 C 223.494 46.645,223.379 46.778,222.317 47.144 C 220.284 47.843,218.895 48.906,218.178 50.311 C 217.551 51.541,217.879 52.500,218.928 52.500 C 219.527 52.500,219.566 52.468,220.538 51.169 C 223.202 47.607,227.993 49.448,227.998 54.036 C 228.000 55.396,228.030 55.523,228.479 56.036 C 229.165 56.821,229.638 57.775,229.767 58.638 C 229.938 59.780,229.791 59.833,226.482 59.833 C 222.737 59.833,222.603 59.769,224.056 58.672 C 225.347 57.698,225.635 56.926,224.971 56.219 C 224.400 55.611,223.873 55.721,222.648 56.703 C 221.089 57.953,218.976 57.968,217.156 56.743 C 216.008 55.971,215.669 55.903,215.118 56.336 C 214.268 57.005,214.652 58.015,216.147 59.040 C 216.954 59.593,216.509 59.833,214.676 59.833 C 212.471 59.833,212.441 59.795,212.524 57.015 C 212.592 54.725,212.808 54.242,213.928 53.867 C 215.766 53.252,215.577 51.500,213.673 51.500 C 212.456 51.500,212.469 51.557,212.530 46.114 C 212.588 41.038,212.683 40.466,213.550 40.022 C 214.129 39.726,215.805 39.911,216.877 40.389 M187.916 40.375 C 186.636 41.476,187.270 42.549,190.050 43.983 C 192.020 44.999,192.732 45.002,193.253 43.994 C 193.864 42.813,193.529 42.328,191.196 41.016 C 189.198 39.894,188.609 39.779,187.916 40.375 M231.493 40.913 C 229.791 41.878,229.384 42.223,229.330 42.750 C 229.112 44.840,230.422 45.197,232.967 43.743 C 235.389 42.359,235.938 41.423,234.924 40.409 C 234.235 39.720,233.374 39.846,231.493 40.913 M182.052 52.902 C 180.971 53.390,180.745 54.712,181.605 55.521 C 182.053 55.943,184.882 56.184,186.286 55.921 C 187.646 55.666,188.102 54.326,187.180 53.294 L 186.694 52.750 184.639 52.706 C 183.131 52.674,182.442 52.726,182.052 52.902 M235.888 52.910 C 234.614 53.464,234.710 55.359,236.036 55.821 C 236.856 56.107,240.087 56.050,240.688 55.739 C 241.877 55.124,241.821 53.423,240.595 52.911 C 239.821 52.588,236.630 52.587,235.888 52.910 M204.442 64.971 C 203.800 65.681,204.313 66.673,205.491 67.000 C 206.876 67.385,207.240 67.087,206.740 65.979 C 206.199 64.779,205.066 64.282,204.442 64.971 M216.410 65.224 C 215.521 66.112,215.418 67.167,216.220 67.167 C 217.887 67.167,219.173 65.657,218.130 64.926 C 217.551 64.521,217.021 64.612,216.410 65.224 M209.916 69.708 C 209.866 69.915,209.903 70.646,209.999 71.333 C 210.094 72.021,210.218 74.646,210.275 77.167 C 210.384 82.051,210.406 82.167,211.239 82.167 C 212.309 82.167,212.291 82.249,212.400 76.833 C 212.454 74.129,212.563 71.467,212.643 70.917 C 212.854 69.455,212.747 69.333,211.247 69.333 C 210.098 69.333,210.000 69.361,209.916 69.708 M201.167 83.667 C 200.554 84.280,200.894 85.241,201.819 85.510 C 203.035 85.864,221.069 85.640,221.483 85.266 C 221.965 84.829,221.955 83.937,221.463 83.593 C 220.813 83.137,201.626 83.207,201.167 83.667 M202.500 86.813 C 202.128 86.919,202.083 87.019,202.083 87.758 L 202.083 88.583 211.167 88.627 C 221.185 88.675,220.667 88.728,220.667 87.655 C 220.667 86.735,220.834 86.752,211.516 86.722 C 206.786 86.707,202.729 86.748,202.500 86.813 M201.242 90.242 C 201.017 90.467,200.833 90.808,200.833 91.000 C 200.833 91.192,201.017 91.533,201.242 91.758 L 201.652 92.167 211.235 92.167 C 221.386 92.167,221.580 92.152,221.772 91.388 C 222.166 89.820,222.257 89.833,211.235 89.833 L 201.652 89.833 201.242 90.242 M202.343 93.571 C 201.750 94.286,203.189 95.581,204.879 95.854 C 205.795 96.001,206.007 96.115,206.836 96.905 C 209.510 99.456,213.035 99.441,215.850 96.866 C 216.570 96.207,216.951 95.986,217.517 95.899 C 218.955 95.678,220.413 94.562,220.300 93.769 L 220.250 93.417 211.397 93.374 C 203.844 93.337,202.514 93.366,202.343 93.571 M271.072 134.833 C 271.072 137.171,271.096 138.127,271.125 136.958 C 271.153 135.790,271.153 133.877,271.125 132.708 C 271.096 131.540,271.072 132.496,271.072 134.833 M282.732 139.250 C 282.733 140.533,282.759 141.036,282.791 140.368 C 282.822 139.699,282.822 138.649,282.790 138.034 C 282.758 137.420,282.732 137.967,282.732 139.250 " stroke="none" fill="#f4fbfa" fill-rule="evenodd"/><path id="path2" d="M270.792 9.792 C 274.298 9.817,280.035 9.817,283.542 9.792 C 287.048 9.766,284.179 9.746,277.167 9.746 C 270.154 9.746,267.285 9.766,270.792 9.792 M295.458 9.786 C 294.358 9.953,294.434 10.995,295.748 13.750 C 296.273 14.850,297.303 17.025,298.038 18.583 C 298.773 20.142,300.002 22.720,300.770 24.312 C 301.538 25.905,302.167 27.228,302.167 27.253 C 302.167 27.277,302.663 28.336,303.269 29.607 C 303.875 30.877,304.729 32.667,305.166 33.583 C 305.603 34.500,306.391 36.150,306.917 37.250 C 307.442 38.350,308.380 40.337,309.001 41.667 C 312.537 49.235,312.593 49.333,313.417 49.333 C 314.219 49.333,314.604 48.649,318.332 40.583 C 318.995 39.150,319.909 37.209,321.669 33.500 C 322.517 31.712,323.418 29.800,323.670 29.250 C 323.922 28.700,324.475 27.519,324.898 26.625 C 327.703 20.696,327.688 21.920,325.028 15.913 C 322.293 9.739,322.464 10.052,321.708 9.842 C 321.108 9.675,296.535 9.623,295.458 9.786 M368.000 9.808 C 367.560 9.923,366.595 11.735,362.798 19.583 C 361.911 21.417,360.234 24.867,359.073 27.250 C 354.899 35.812,353.943 37.780,352.999 39.750 C 352.472 40.850,351.198 43.475,350.168 45.583 C 348.070 49.877,345.929 54.273,344.000 58.250 C 343.288 59.717,341.900 62.567,340.915 64.583 C 339.931 66.600,338.581 69.375,337.917 70.750 C 337.253 72.125,335.903 74.900,334.918 76.917 C 329.811 87.366,330.126 86.270,331.445 89.000 C 332.729 91.657,334.351 95.051,335.264 96.992 C 342.892 113.210,342.845 113.127,343.950 112.494 C 344.464 112.200,343.623 113.839,359.945 81.333 C 366.965 67.354,377.762 45.858,383.938 33.564 C 390.114 21.270,395.166 11.033,395.164 10.814 C 395.161 10.276,394.995 10.053,394.444 9.844 C 393.931 9.649,368.743 9.615,368.000 9.808 M312.064 129.532 C 312.023 129.598,311.879 129.610,311.745 129.558 C 311.610 129.507,311.500 129.552,311.500 129.659 C 311.500 129.766,311.427 129.808,311.338 129.753 C 311.107 129.610,310.156 130.119,309.667 130.647 C 309.438 130.894,309.322 130.981,309.410 130.840 C 309.498 130.699,309.330 130.804,309.035 131.073 C 308.454 131.605,308.326 131.830,308.792 131.502 C 308.952 131.389,308.849 131.511,308.564 131.773 C 307.972 132.316,307.437 133.264,307.586 133.505 C 307.641 133.594,307.609 133.667,307.515 133.667 C 307.421 133.667,307.387 133.779,307.440 133.917 C 307.493 134.055,307.445 134.167,307.332 134.167 C 307.204 134.167,307.158 134.323,307.207 134.583 C 307.251 134.813,307.233 135.000,307.166 135.000 C 307.063 135.000,307.065 136.922,307.168 137.167 C 307.188 137.212,307.190 137.419,307.173 137.625 C 307.156 137.831,307.231 138.000,307.339 138.000 C 307.447 138.000,307.492 138.112,307.440 138.250 C 307.387 138.387,307.421 138.500,307.515 138.500 C 307.609 138.500,307.641 138.573,307.586 138.662 C 307.414 138.941,307.952 139.759,308.995 140.801 C 309.548 141.354,310.000 141.775,310.000 141.737 C 310.000 141.698,310.156 141.822,310.346 142.013 C 310.537 142.203,310.799 142.318,310.930 142.268 C 311.060 142.218,311.167 142.258,311.167 142.356 C 311.167 142.455,311.279 142.492,311.417 142.440 C 311.554 142.387,311.667 142.424,311.667 142.523 C 311.667 142.622,311.777 142.660,311.911 142.608 C 312.046 142.557,312.205 142.594,312.265 142.691 C 312.325 142.789,312.590 142.824,312.860 142.770 C 313.130 142.716,313.493 142.763,313.673 142.876 C 313.915 143.027,314.077 143.032,314.294 142.897 C 314.456 142.796,314.831 142.748,315.127 142.792 C 315.424 142.836,315.667 142.806,315.667 142.727 C 315.667 142.648,315.864 142.572,316.105 142.558 C 316.346 142.544,316.590 142.469,316.647 142.391 C 316.704 142.314,316.844 142.243,316.958 142.233 C 317.452 142.194,317.513 142.155,317.400 141.958 C 317.334 141.844,317.339 141.804,317.412 141.869 C 317.622 142.059,318.203 141.667,318.101 141.404 C 318.051 141.273,318.083 141.167,318.172 141.167 C 318.262 141.167,318.333 140.612,318.333 139.917 C 318.333 139.075,318.270 138.667,318.139 138.667 C 318.032 138.667,317.994 138.617,318.054 138.557 C 318.264 138.347,317.789 138.000,317.291 138.000 C 316.763 138.000,315.667 138.579,315.667 138.857 C 315.667 138.946,315.593 138.974,315.503 138.919 C 315.414 138.863,315.179 138.904,314.981 139.010 C 314.622 139.202,313.001 139.333,312.999 139.170 C 312.998 139.122,312.770 138.954,312.491 138.795 C 312.194 138.626,312.032 138.591,312.100 138.712 C 312.164 138.824,312.111 138.808,311.983 138.674 C 311.855 138.541,311.637 138.329,311.500 138.204 C 311.278 138.001,311.278 137.987,311.500 138.083 C 311.637 138.143,311.604 138.073,311.426 137.929 C 311.249 137.785,311.157 137.667,311.224 137.667 C 311.291 137.667,311.262 137.512,311.161 137.322 C 310.889 136.815,310.936 135.273,311.241 134.683 C 311.387 134.401,311.505 134.132,311.503 134.085 C 311.497 133.919,312.140 133.363,312.232 133.454 C 312.284 133.506,312.371 133.429,312.427 133.284 C 312.482 133.140,312.634 133.062,312.764 133.112 C 312.894 133.162,313.000 133.138,313.000 133.059 C 313.000 132.945,314.853 132.903,315.167 133.011 C 315.212 133.027,315.306 133.031,315.375 133.020 C 315.444 133.009,315.500 133.070,315.500 133.155 C 315.500 133.319,316.151 133.593,316.387 133.529 C 316.463 133.508,316.477 133.569,316.419 133.663 C 316.303 133.850,316.298 133.849,317.250 133.913 C 317.988 133.962,318.361 133.767,318.222 133.404 C 318.172 133.274,318.215 133.167,318.318 133.167 C 318.475 133.167,318.488 132.143,318.346 130.794 C 318.323 130.576,317.025 129.798,316.857 129.902 C 316.768 129.957,316.666 129.915,316.631 129.809 C 316.595 129.703,316.383 129.596,316.158 129.572 C 315.934 129.548,315.750 129.513,315.750 129.496 C 315.750 129.397,312.125 129.432,312.064 129.532 M324.125 129.448 C 323.965 129.490,323.833 129.606,323.833 129.707 C 323.833 129.807,323.786 129.842,323.729 129.784 C 323.555 129.611,322.645 130.164,322.770 130.366 C 322.837 130.474,322.809 130.505,322.705 130.440 C 322.231 130.147,321.537 131.852,321.531 133.323 C 321.525 135.296,322.097 136.023,324.816 137.499 C 326.007 138.145,326.250 138.346,326.250 138.680 C 326.250 139.255,325.313 139.350,324.882 138.818 C 324.209 137.988,323.984 137.834,323.458 137.840 C 322.696 137.850,321.411 138.509,321.440 138.875 C 321.453 139.035,321.396 139.167,321.315 139.167 C 321.233 139.167,321.167 139.354,321.167 139.583 C 321.167 139.813,321.246 140.000,321.343 140.000 C 321.440 140.000,321.475 140.073,321.420 140.162 C 321.365 140.251,321.429 140.532,321.562 140.787 C 323.171 143.858,328.888 143.481,330.018 140.230 C 330.916 137.645,329.951 135.747,326.971 134.238 C 326.359 133.928,325.810 133.597,325.751 133.501 C 325.692 133.406,325.566 133.376,325.472 133.434 C 325.367 133.499,325.374 133.402,325.489 133.187 C 325.734 132.730,325.926 132.741,326.530 133.250 C 327.643 134.187,329.833 133.357,329.833 131.999 C 329.833 130.108,326.795 128.751,324.125 129.448 M240.833 130.083 C 241.144 130.404,241.436 130.667,241.482 130.667 C 241.528 130.667,241.311 130.404,241.000 130.083 C 240.689 129.762,240.397 129.500,240.351 129.500 C 240.305 129.500,240.522 129.762,240.833 130.083 M248.125 129.618 C 248.331 129.657,248.669 129.657,248.875 129.618 C 249.081 129.578,248.912 129.545,248.500 129.545 C 248.088 129.545,247.919 129.578,248.125 129.618 M268.877 129.620 C 269.131 129.658,269.506 129.657,269.711 129.617 C 269.916 129.578,269.708 129.546,269.250 129.548 C 268.792 129.549,268.624 129.581,268.877 129.620 M276.875 129.619 C 277.127 129.658,277.540 129.658,277.792 129.619 C 278.044 129.581,277.837 129.550,277.333 129.550 C 276.829 129.550,276.623 129.581,276.875 129.619 M284.208 129.619 C 284.460 129.658,284.873 129.658,285.125 129.619 C 285.377 129.581,285.171 129.550,284.667 129.550 C 284.162 129.550,283.956 129.581,284.208 129.619 M289.083 129.667 C 289.267 129.745,290.223 129.815,291.208 129.822 C 292.284 129.829,293.000 129.900,293.000 130.000 C 293.000 130.092,293.169 130.177,293.375 130.190 C 293.581 130.203,293.450 130.268,293.083 130.333 L 292.417 130.453 293.083 130.479 C 293.458 130.494,293.663 130.560,293.552 130.631 C 293.436 130.705,293.366 131.081,293.385 131.529 C 293.402 131.954,293.468 132.270,293.530 132.231 C 293.593 132.193,293.688 132.232,293.741 132.319 C 293.795 132.406,293.761 132.525,293.667 132.583 C 293.572 132.642,293.531 132.749,293.576 132.822 C 293.843 133.254,293.676 141.713,293.394 142.025 C 293.115 142.334,293.115 142.343,293.412 142.229 C 293.626 142.146,293.684 142.170,293.601 142.305 C 293.535 142.412,293.568 142.500,293.675 142.500 C 293.782 142.500,293.828 142.392,293.777 142.261 C 293.727 142.129,293.764 141.995,293.861 141.963 C 293.978 141.924,294.027 140.428,294.010 137.411 L 293.983 132.917 295.242 132.972 C 296.132 133.010,296.500 132.968,296.500 132.829 C 296.500 132.720,296.610 132.673,296.745 132.725 C 297.190 132.896,297.384 131.371,297.057 130.271 C 296.988 130.039,297.023 129.994,297.190 130.094 C 297.378 130.207,297.377 130.182,297.188 129.949 C 296.948 129.653,296.747 129.559,296.906 129.816 C 296.957 129.898,296.870 130.014,296.712 130.075 C 296.555 130.135,296.480 130.131,296.545 130.066 C 297.003 129.608,296.219 129.500,292.521 129.512 C 290.260 129.519,288.883 129.581,289.083 129.667 M301.076 129.678 C 301.016 129.776,300.867 129.818,300.745 129.771 C 300.624 129.725,300.435 129.795,300.325 129.927 C 300.216 130.059,300.191 130.168,300.271 130.169 C 300.351 130.171,300.304 130.244,300.167 130.333 C 300.029 130.422,299.992 130.496,300.083 130.497 C 300.242 130.499,300.249 132.063,300.125 139.360 C 300.102 140.704,300.146 141.716,300.223 141.610 C 300.307 141.493,300.330 141.565,300.280 141.792 C 300.235 141.998,300.278 142.215,300.375 142.276 C 300.487 142.345,300.502 142.304,300.415 142.164 C 300.315 142.002,300.356 141.973,300.570 142.055 C 300.730 142.116,300.911 142.168,300.972 142.169 C 301.033 142.171,300.997 142.227,300.891 142.294 C 300.785 142.362,301.247 142.417,301.917 142.417 C 302.587 142.417,303.061 142.371,302.970 142.315 C 302.879 142.259,302.962 142.172,303.153 142.122 C 303.373 142.064,303.460 142.096,303.391 142.208 C 303.325 142.316,303.362 142.335,303.486 142.259 C 303.598 142.190,303.649 142.028,303.600 141.900 C 303.551 141.772,303.583 141.667,303.672 141.667 C 303.925 141.667,303.887 130.620,303.633 130.367 C 303.523 130.257,303.495 130.167,303.570 130.167 C 303.646 130.167,303.618 130.059,303.508 129.927 C 303.399 129.795,303.210 129.725,303.088 129.771 C 302.966 129.818,302.818 129.776,302.757 129.678 C 302.697 129.580,302.318 129.500,301.917 129.500 C 301.515 129.500,301.137 129.580,301.076 129.678 M286.372 130.667 C 286.372 130.987,286.406 131.119,286.448 130.958 C 286.490 130.798,286.490 130.535,286.448 130.375 C 286.406 130.215,286.372 130.346,286.372 130.667 M250.242 136.167 C 250.242 139.329,250.264 140.623,250.291 139.042 C 250.319 137.460,250.319 134.873,250.291 133.292 C 250.264 131.710,250.242 133.004,250.242 136.167 M267.408 136.083 C 267.408 139.200,267.431 140.451,267.458 138.864 C 267.486 137.277,267.485 134.727,267.458 133.198 C 267.431 131.668,267.408 132.967,267.408 136.083 M297.067 132.527 C 297.010 132.619,296.875 132.604,296.737 132.489 C 296.609 132.383,296.547 132.225,296.600 132.140 C 296.657 132.048,296.792 132.063,296.930 132.177 C 297.058 132.284,297.120 132.441,297.067 132.527 M295.167 132.714 C 295.663 132.770,295.634 132.784,294.968 132.807 C 294.192 132.833,293.880 132.662,294.089 132.323 C 294.161 132.208,294.265 132.234,294.391 132.397 C 294.497 132.535,294.846 132.678,295.167 132.714 M288.709 132.667 C 288.757 132.843,289.053 132.931,289.719 132.967 L 290.661 133.016 290.708 137.300 L 290.756 141.583 290.795 137.208 L 290.833 132.833 290.042 132.814 C 289.606 132.803,289.182 132.807,289.099 132.822 C 289.015 132.838,288.878 132.753,288.794 132.634 C 288.676 132.465,288.656 132.473,288.709 132.667 M291.141 136.958 C 291.126 139.319,291.130 141.426,291.149 141.640 C 291.174 141.921,291.123 141.994,290.967 141.900 C 290.801 141.800,290.804 141.836,290.977 142.050 C 291.102 142.204,291.271 142.289,291.352 142.238 C 291.433 142.188,291.500 142.226,291.500 142.323 C 291.500 142.421,291.580 142.500,291.678 142.500 C 291.784 142.500,291.811 142.350,291.744 142.125 C 291.634 141.754,291.635 141.754,291.909 142.083 C 292.179 142.410,292.181 142.409,292.001 142.037 C 291.900 141.828,291.751 141.698,291.670 141.748 C 291.357 141.942,291.314 141.354,291.328 137.083 C 291.336 134.654,291.303 132.667,291.255 132.667 C 291.206 132.667,291.155 134.598,291.141 136.958 M242.037 139.042 L 242.073 141.583 242.125 139.201 C 242.164 137.379,242.224 136.848,242.380 136.942 C 242.509 137.020,242.500 136.962,242.355 136.782 C 242.229 136.627,242.098 136.500,242.063 136.500 C 242.028 136.500,242.017 137.644,242.037 139.042 M278.999 139.216 L 279.082 141.750 279.129 139.346 C 279.155 138.024,279.118 136.884,279.046 136.813 C 278.975 136.741,278.954 137.823,278.999 139.216 M245.250 139.667 C 245.701 140.125,246.108 140.500,246.154 140.500 C 246.200 140.500,245.868 140.125,245.417 139.667 C 244.965 139.208,244.558 138.833,244.513 138.833 C 244.467 138.833,244.799 139.208,245.250 139.667 M308.500 140.552 C 308.500 140.581,308.744 140.825,309.042 141.094 L 309.583 141.583 309.094 141.042 C 308.638 140.537,308.500 140.423,308.500 140.552 M293.000 141.832 C 292.862 141.920,292.600 141.957,292.417 141.914 C 292.233 141.872,292.178 141.880,292.293 141.932 C 292.408 141.985,292.460 142.097,292.408 142.181 C 292.356 142.265,292.481 142.333,292.685 142.333 C 292.889 142.333,293.007 142.284,292.947 142.225 C 292.887 142.165,292.969 142.018,293.128 141.897 C 293.462 141.643,293.369 141.595,293.000 141.832 " stroke="none" fill="#34bcb3" fill-rule="evenodd"/><path id="path3" d="M343.529 9.792 C 346.891 9.817,352.441 9.817,355.863 9.792 C 359.284 9.766,356.533 9.746,349.750 9.746 C 342.967 9.746,340.167 9.766,343.529 9.792 M207.750 18.931 C 207.475 18.969,206.537 19.081,205.667 19.180 C 182.211 21.841,164.802 44.110,167.584 67.895 C 171.854 104.396,216.446 119.906,242.426 93.926 C 267.982 68.370,253.534 24.790,217.667 19.244 C 216.005 18.987,208.953 18.764,207.750 18.931 M212.285 27.261 C 213.245 27.882,213.308 32.178,212.369 33.017 C 210.663 34.541,209.584 33.206,209.693 29.701 C 209.774 27.087,210.687 26.228,212.285 27.261 M224.973 30.569 C 226.122 31.164,226.072 31.978,224.742 34.294 C 223.413 36.610,222.485 37.106,221.439 36.061 C 220.733 35.354,220.841 34.739,222.042 32.631 C 223.314 30.396,223.875 30.002,224.973 30.569 M199.408 30.875 C 200.000 31.394,201.667 34.480,201.667 35.054 C 201.667 36.143,200.129 36.888,199.211 36.245 C 198.597 35.816,196.924 32.690,196.924 31.974 C 196.924 30.664,198.417 30.004,199.408 30.875 M210.449 37.925 L 211.379 38.380 212.262 37.947 C 214.635 36.784,217.249 37.463,221.917 40.457 C 225.183 42.553,225.795 43.369,225.982 45.883 L 226.083 47.250 226.916 47.699 C 229.125 48.890,230.500 51.200,230.500 53.718 C 230.500 54.361,230.625 54.736,231.093 55.493 C 233.135 58.802,232.165 62.869,228.036 68.305 C 224.935 72.388,223.099 75.752,221.815 79.705 C 220.968 82.311,221.209 82.167,217.690 82.167 C 213.905 82.167,214.264 82.747,214.384 76.840 C 214.531 69.621,214.574 69.458,216.414 69.166 C 219.100 68.740,220.500 67.541,220.500 65.667 C 220.500 62.925,217.228 61.622,215.188 63.552 C 214.664 64.048,213.500 66.157,213.500 66.611 C 213.500 67.100,212.773 67.333,211.255 67.331 C 209.440 67.328,209.444 67.330,208.911 66.018 C 207.693 63.021,205.887 61.965,203.748 63.001 C 200.437 64.604,202.028 68.527,206.250 69.169 C 206.912 69.270,207.499 69.455,207.607 69.597 C 208.239 70.430,208.643 80.984,208.074 81.796 C 207.804 82.181,202.269 82.385,201.711 82.031 C 201.597 81.959,201.213 81.004,200.858 79.908 C 199.528 75.816,197.679 72.294,195.011 68.772 C 190.489 62.804,189.483 58.604,191.780 55.290 C 192.164 54.735,192.263 54.374,192.360 53.159 C 192.546 50.830,193.874 48.665,195.677 47.750 C 196.719 47.222,196.833 47.041,196.833 45.921 C 196.833 43.610,197.831 42.310,201.237 40.188 C 205.715 37.397,208.147 36.799,210.449 37.925 M207.083 39.951 C 206.216 40.157,204.833 40.897,204.833 41.155 C 204.833 41.306,205.163 41.754,205.566 42.150 C 206.924 43.482,207.184 44.864,206.145 45.229 C 205.472 45.466,204.925 45.233,204.410 44.490 C 203.121 42.631,200.378 42.766,199.484 44.734 C 198.877 46.071,199.178 46.837,200.434 47.154 C 202.892 47.773,205.407 50.449,204.832 51.836 C 204.388 52.908,203.328 52.730,202.418 51.430 C 199.791 47.677,194.799 49.303,194.762 53.923 C 194.751 55.364,194.726 55.460,194.208 56.115 C 193.074 57.546,192.638 59.294,193.322 59.661 C 193.666 59.844,198.949 59.906,199.403 59.732 C 199.820 59.572,199.723 59.405,198.841 58.771 C 197.455 57.776,197.064 56.756,197.831 56.135 C 198.394 55.679,198.877 55.766,199.851 56.498 C 201.954 58.078,203.572 58.031,206.295 56.310 C 206.953 55.894,207.545 55.993,207.933 56.585 C 208.398 57.294,208.086 57.853,206.500 59.152 C 205.887 59.654,206.285 59.828,208.053 59.831 C 210.345 59.835,210.167 60.236,210.167 55.069 C 210.167 50.159,210.114 49.875,209.133 49.508 C 208.831 49.395,208.413 49.236,208.205 49.154 C 206.919 48.646,207.620 47.000,209.122 47.000 C 210.129 47.000,210.167 46.894,210.167 44.045 C 210.167 40.176,209.555 39.364,207.083 39.951 M213.550 40.022 C 212.683 40.466,212.588 41.038,212.530 46.114 C 212.469 51.557,212.456 51.500,213.673 51.500 C 215.577 51.500,215.766 53.252,213.928 53.867 C 212.808 54.242,212.592 54.725,212.524 57.015 C 212.441 59.795,212.471 59.833,214.676 59.833 C 216.509 59.833,216.954 59.593,216.147 59.040 C 214.652 58.015,214.268 57.005,215.118 56.336 C 215.669 55.903,216.008 55.971,217.156 56.743 C 218.976 57.968,221.089 57.953,222.648 56.703 C 223.873 55.721,224.400 55.611,224.971 56.219 C 225.635 56.926,225.347 57.698,224.056 58.672 C 222.603 59.769,222.737 59.833,226.482 59.833 C 229.791 59.833,229.938 59.780,229.767 58.638 C 229.638 57.775,229.165 56.821,228.479 56.036 C 228.030 55.523,228.000 55.396,227.998 54.036 C 227.993 49.448,223.202 47.607,220.538 51.169 C 219.566 52.468,219.527 52.500,218.928 52.500 C 217.879 52.500,217.551 51.541,218.178 50.311 C 218.895 48.906,220.284 47.843,222.317 47.144 C 223.379 46.778,223.494 46.645,223.497 45.773 C 223.508 43.063,220.205 42.264,218.317 44.519 C 217.758 45.187,217.538 45.333,217.094 45.333 C 215.529 45.333,215.680 43.479,217.366 41.975 C 218.222 41.211,218.143 40.953,216.877 40.389 C 215.805 39.911,214.129 39.726,213.550 40.022 M191.196 41.016 C 193.529 42.328,193.864 42.813,193.253 43.994 C 192.400 45.645,187.133 43.334,187.389 41.422 C 187.615 39.738,188.713 39.621,191.196 41.016 M234.924 40.409 C 235.938 41.423,235.389 42.359,232.967 43.743 C 230.422 45.197,229.112 44.840,229.330 42.750 C 229.481 41.298,233.945 39.430,234.924 40.409 M187.180 53.294 C 188.102 54.326,187.646 55.666,186.286 55.921 C 182.918 56.553,180.352 55.404,181.250 53.666 C 181.684 52.828,182.290 52.656,184.639 52.706 L 186.694 52.750 187.180 53.294 M240.595 52.911 C 241.821 53.423,241.877 55.124,240.688 55.739 C 240.087 56.050,236.856 56.107,236.036 55.821 C 234.710 55.359,234.614 53.464,235.888 52.910 C 236.630 52.587,239.821 52.588,240.595 52.911 M206.030 64.988 C 206.523 65.376,207.081 66.549,206.943 66.908 C 206.762 67.379,205.193 67.110,204.533 66.495 C 203.448 65.484,204.858 64.066,206.030 64.988 M218.130 64.926 C 219.173 65.657,217.887 67.167,216.220 67.167 C 215.418 67.167,215.521 66.112,216.410 65.224 C 217.021 64.612,217.551 64.521,218.130 64.926 M212.638 69.625 C 212.725 69.795,212.727 70.335,212.643 70.917 C 212.563 71.467,212.454 74.129,212.400 76.833 C 212.291 82.249,212.309 82.167,211.239 82.167 C 210.406 82.167,210.384 82.051,210.275 77.167 C 210.218 74.646,210.094 72.021,209.999 71.333 C 209.729 69.391,209.765 69.333,211.247 69.333 C 212.261 69.333,212.516 69.387,212.638 69.625 M221.463 83.593 C 221.955 83.937,221.965 84.829,221.483 85.266 C 221.069 85.640,203.035 85.864,201.819 85.510 C 200.894 85.241,200.554 84.280,201.167 83.667 C 201.626 83.207,220.813 83.137,221.463 83.593 M220.391 86.979 C 220.717 87.249,220.752 87.986,220.458 88.387 C 220.266 88.649,219.558 88.667,211.167 88.627 L 202.083 88.583 202.083 87.758 C 202.083 87.019,202.128 86.919,202.500 86.813 C 203.342 86.573,220.089 86.728,220.391 86.979 M221.246 90.029 C 221.715 90.242,221.924 90.783,221.772 91.388 C 221.580 92.152,221.386 92.167,211.235 92.167 L 201.652 92.167 201.242 91.758 C 201.017 91.533,200.833 91.192,200.833 91.000 C 200.833 90.808,201.017 90.467,201.242 90.242 L 201.652 89.833 211.235 89.833 C 218.203 89.833,220.935 89.887,221.246 90.029 M220.300 93.769 C 220.413 94.562,218.955 95.678,217.517 95.899 C 216.951 95.986,216.570 96.207,215.850 96.866 C 213.035 99.441,209.510 99.456,206.836 96.905 C 206.007 96.115,205.795 96.001,204.879 95.854 C 203.469 95.626,202.883 95.244,202.343 94.198 C 201.888 93.316,201.771 93.327,211.397 93.374 L 220.250 93.417 220.300 93.769 M168.663 129.389 C 168.615 129.439,168.354 129.520,168.082 129.569 C 167.381 129.696,166.667 130.013,166.667 130.197 C 166.667 130.283,166.601 130.312,166.520 130.263 C 166.150 130.034,164.085 132.105,163.929 132.861 C 163.904 132.983,163.765 133.346,163.621 133.667 C 163.141 134.735,163.341 139.000,163.871 139.000 C 163.953 139.000,163.978 139.067,163.927 139.149 C 163.581 139.710,165.945 141.946,167.417 142.451 C 168.737 142.904,172.333 142.818,172.934 142.319 C 173.062 142.213,173.167 142.175,173.167 142.235 C 173.167 142.422,173.831 142.001,174.523 141.376 C 175.174 140.788,175.824 139.633,175.899 138.931 C 175.920 138.732,175.980 138.497,176.032 138.410 C 176.618 137.424,176.042 135.236,175.132 134.990 C 173.556 134.564,169.752 134.964,170.095 135.519 C 170.145 135.600,170.107 135.667,170.009 135.667 C 169.900 135.667,169.841 136.063,169.855 136.689 C 169.885 138.008,170.175 138.333,171.323 138.333 C 172.361 138.333,172.588 138.761,171.662 138.972 C 171.529 139.002,171.382 139.079,171.335 139.143 C 171.220 139.300,169.000 139.303,169.000 139.146 C 169.000 139.078,168.835 138.970,168.634 138.906 C 167.457 138.533,166.695 136.464,167.189 134.983 C 167.397 134.358,168.443 133.167,168.784 133.167 C 168.903 133.167,169.000 133.110,169.000 133.042 C 169.000 132.784,170.495 132.827,171.116 133.103 C 171.465 133.258,171.812 133.371,171.887 133.355 C 171.963 133.339,171.982 133.394,171.930 133.478 C 171.574 134.055,173.450 134.050,174.290 133.473 C 175.713 132.494,175.219 131.058,173.084 129.969 C 172.131 129.483,168.972 129.069,168.663 129.389 M190.950 129.643 C 190.686 129.962,190.566 141.667,190.827 141.667 C 190.922 141.667,190.991 141.723,190.980 141.792 C 190.929 142.115,191.015 142.344,191.155 142.257 C 191.240 142.204,191.355 142.234,191.410 142.323 C 191.546 142.543,193.627 142.439,193.866 142.200 C 193.998 142.068,194.045 141.140,194.016 139.199 C 193.970 136.029,194.033 135.892,195.036 136.986 L 195.583 137.583 194.993 137.083 C 194.668 136.808,194.743 136.911,195.159 137.312 C 195.576 137.713,196.540 138.651,197.303 139.396 C 198.065 140.141,198.777 140.753,198.886 140.758 C 198.994 140.762,199.067 140.849,199.047 140.951 C 199.013 141.123,199.756 141.846,200.680 142.542 C 201.152 142.896,201.887 142.921,202.161 142.590 C 202.378 142.328,202.439 130.805,202.224 130.459 C 202.160 130.355,202.194 130.331,202.308 130.401 C 202.584 130.572,202.545 130.434,202.208 130.058 C 202.048 129.879,201.767 129.728,201.583 129.724 C 201.400 129.720,201.119 129.660,200.958 129.590 C 200.798 129.521,200.535 129.521,200.375 129.590 C 200.215 129.660,199.927 129.701,199.736 129.683 C 199.342 129.646,198.916 130.063,199.079 130.326 C 199.138 130.422,199.126 130.500,199.052 130.500 C 198.977 130.500,198.941 131.705,198.970 133.179 C 199.025 135.936,198.874 136.367,198.227 135.291 C 198.149 135.161,198.223 135.174,198.426 135.326 C 198.604 135.460,198.495 135.295,198.184 134.959 C 197.872 134.624,197.572 134.365,197.517 134.383 C 197.462 134.402,197.393 134.342,197.363 134.250 C 197.267 133.949,196.792 133.506,196.656 133.590 C 196.583 133.635,196.469 133.584,196.402 133.477 C 196.323 133.348,196.362 133.322,196.516 133.399 C 196.645 133.463,196.528 133.343,196.258 133.133 C 195.987 132.922,195.006 131.978,194.078 131.035 C 192.299 129.227,191.567 128.901,190.950 129.643 M180.461 129.612 C 179.328 129.747,179.333 129.718,179.333 136.089 C 179.333 140.729,179.377 141.829,179.570 142.093 C 179.930 142.587,186.400 142.686,186.992 142.207 C 187.718 141.619,187.559 139.226,186.787 139.145 C 186.675 139.134,186.171 139.113,185.667 139.099 C 185.162 139.085,184.356 139.057,183.875 139.037 L 183.000 139.000 183.000 138.167 L 183.000 137.333 184.815 137.333 C 187.038 137.333,187.334 137.172,187.457 135.892 C 187.573 134.686,186.985 133.711,186.226 133.847 C 185.000 134.067,183.000 133.800,183.000 133.417 C 183.000 133.006,183.020 133.000,184.375 132.998 C 186.444 132.995,186.972 132.871,187.258 132.319 C 187.703 131.456,187.476 130.007,186.852 129.734 C 186.544 129.598,181.397 129.500,180.461 129.612 M206.431 129.644 C 206.382 129.723,206.150 129.767,205.915 129.742 C 205.343 129.679,205.052 130.183,205.013 131.307 C 204.990 131.966,205.034 132.165,205.183 132.073 C 205.314 131.992,205.341 132.019,205.261 132.148 C 205.080 132.441,205.460 132.813,205.839 132.713 C 206.020 132.666,206.167 132.711,206.167 132.814 C 206.167 132.928,206.520 133.000,207.083 133.000 L 208.000 133.000 208.000 137.343 C 208.000 140.378,208.054 141.653,208.178 141.576 C 208.276 141.516,208.342 141.568,208.325 141.692 C 208.263 142.141,208.337 142.351,208.518 142.239 C 208.646 142.160,208.634 142.082,208.476 141.982 C 208.288 141.863,208.288 141.838,208.474 141.836 C 208.597 141.834,208.733 141.968,208.776 142.132 C 208.862 142.459,210.075 142.617,210.256 142.324 C 210.309 142.238,210.428 142.167,210.520 142.167 C 210.611 142.167,210.640 142.242,210.583 142.333 C 210.527 142.425,210.602 142.500,210.750 142.500 C 210.898 142.500,210.974 142.426,210.918 142.335 C 210.862 142.245,210.920 142.211,211.048 142.259 C 211.176 142.308,211.386 142.218,211.515 142.059 C 211.644 141.900,211.669 141.818,211.569 141.877 C 211.470 141.937,211.389 141.873,211.389 141.735 C 211.389 141.596,211.487 141.523,211.611 141.571 C 211.793 141.641,211.833 140.866,211.833 137.328 L 211.833 133.000 212.667 133.000 C 213.340 133.000,213.500 132.946,213.500 132.717 C 213.500 132.496,213.544 132.478,213.700 132.633 C 214.015 132.948,214.196 132.867,214.000 132.500 C 213.817 132.159,214.049 132.008,214.252 132.336 C 214.380 132.543,214.668 132.389,214.664 132.115 C 214.663 131.996,214.597 132.016,214.500 132.167 C 214.384 132.346,214.338 132.180,214.336 131.575 C 214.334 131.112,214.252 130.652,214.152 130.552 C 214.022 130.422,214.029 130.335,214.178 130.243 C 214.320 130.155,214.343 130.184,214.250 130.333 C 214.155 130.487,214.180 130.512,214.333 130.417 C 214.473 130.331,214.511 130.347,214.440 130.463 C 214.378 130.562,214.398 130.687,214.483 130.739 C 214.568 130.792,214.612 130.703,214.581 130.542 C 214.551 130.382,214.520 130.189,214.513 130.114 C 214.506 130.039,214.350 130.025,214.166 130.084 C 213.944 130.154,213.798 130.102,213.732 129.929 C 213.677 129.786,213.565 129.710,213.483 129.761 C 213.400 129.812,213.333 129.774,213.333 129.677 C 213.333 129.459,206.564 129.428,206.431 129.644 M124.327 130.006 C 124.141 130.193,124.033 130.419,124.089 130.509 C 124.236 130.747,124.501 130.531,124.397 130.258 C 124.333 130.091,124.428 130.040,124.739 130.074 C 125.086 130.112,125.133 130.077,124.981 129.894 C 124.739 129.602,124.730 129.604,124.327 130.006 M130.667 129.802 C 130.667 129.865,129.681 129.894,128.477 129.865 C 126.228 129.813,125.243 130.033,126.730 130.256 C 127.589 130.385,127.741 130.608,127.042 130.714 L 126.583 130.783 127.042 130.808 C 127.518 130.834,127.654 131.067,127.292 131.236 C 127.125 131.314,127.125 131.353,127.292 131.431 C 127.406 131.484,127.500 131.629,127.500 131.752 C 127.500 131.875,127.631 132.109,127.792 132.270 C 128.070 132.551,128.069 132.559,127.778 132.449 C 127.571 132.371,127.494 132.400,127.541 132.542 C 127.635 132.825,130.500 132.932,130.500 132.653 C 130.500 132.506,130.557 132.506,130.734 132.653 C 130.913 132.802,130.988 132.797,131.054 132.632 C 131.117 132.475,131.146 132.485,131.161 132.667 C 131.172 132.804,131.292 132.692,131.426 132.417 C 131.629 132.001,131.657 131.984,131.594 132.316 C 131.545 132.576,131.575 132.658,131.682 132.551 C 131.913 132.321,132.056 131.446,131.841 131.578 C 131.730 131.647,131.720 131.552,131.812 131.302 C 131.914 131.027,131.883 130.868,131.702 130.735 C 131.499 130.587,131.492 130.524,131.667 130.416 C 131.820 130.322,131.845 130.347,131.750 130.500 C 131.658 130.648,131.680 130.678,131.817 130.593 C 132.140 130.394,131.623 129.760,131.106 129.720 C 130.864 129.702,130.667 129.738,130.667 129.802 M136.118 129.946 C 136.167 130.075,136.069 130.110,135.833 130.048 C 135.509 129.964,135.481 130.007,135.555 130.478 C 135.603 130.782,135.572 130.961,135.482 130.905 C 135.385 130.846,135.330 132.898,135.338 136.242 C 135.347 140.203,135.401 141.644,135.537 141.561 C 135.657 141.487,135.687 141.540,135.622 141.710 C 135.566 141.856,135.628 142.065,135.760 142.175 C 135.892 142.284,136.000 142.318,136.000 142.250 C 136.000 142.182,136.094 142.203,136.208 142.298 C 136.478 142.521,142.234 142.577,142.097 142.356 C 142.041 142.265,142.159 142.237,142.375 142.290 C 142.581 142.341,142.697 142.325,142.633 142.255 C 142.569 142.184,142.614 142.029,142.734 141.909 C 143.244 141.398,142.881 139.072,142.315 139.220 C 142.142 139.265,142.000 139.253,142.000 139.193 C 142.000 139.133,141.282 139.110,140.405 139.141 L 138.809 139.200 138.842 134.641 C 138.865 131.340,138.823 130.095,138.687 130.125 C 138.584 130.148,138.519 130.077,138.542 129.967 C 138.571 129.827,138.208 129.765,137.313 129.759 C 136.404 129.753,136.064 129.806,136.118 129.946 M146.065 129.959 C 145.685 130.339,145.727 141.871,146.109 142.188 C 146.322 142.364,147.121 142.417,149.603 142.417 C 153.389 142.417,153.314 142.448,153.386 140.826 C 153.459 139.204,153.210 139.018,151.120 139.127 L 149.516 139.211 149.466 134.697 C 149.427 131.095,149.370 130.139,149.184 129.966 C 148.991 129.787,148.974 129.793,149.088 130.000 C 149.195 130.197,149.156 130.191,148.904 129.975 C 148.492 129.621,146.414 129.609,146.065 129.959 M156.536 129.935 C 156.114 130.387,156.240 141.850,156.671 142.202 C 157.180 142.617,159.265 142.547,159.589 142.104 C 159.958 141.600,159.943 130.563,159.573 130.035 C 159.254 129.581,156.939 129.505,156.536 129.935 M238.408 135.833 C 238.408 138.996,238.431 140.290,238.458 138.708 C 238.485 137.127,238.485 134.540,238.458 132.958 C 238.431 131.377,238.408 132.671,238.408 135.833 M242.500 131.750 C 243.091 132.346,243.611 132.833,243.657 132.833 C 243.703 132.833,243.257 132.346,242.667 131.750 C 242.076 131.154,241.555 130.667,241.510 130.667 C 241.464 130.667,241.909 131.154,242.500 131.750 M121.118 131.167 C 121.070 131.350,121.099 131.542,121.182 131.593 C 121.265 131.644,121.333 131.494,121.333 131.260 C 121.333 130.749,121.238 130.708,121.118 131.167 M124.007 136.237 C 124.023 140.835,124.062 141.655,124.271 141.735 C 124.408 141.788,124.473 141.757,124.417 141.667 C 124.362 141.577,124.322 139.103,124.329 136.169 C 124.337 132.517,124.285 130.833,124.165 130.833 C 124.044 130.833,123.994 132.534,124.007 136.237 M126.979 131.880 C 126.841 132.117,126.931 132.611,127.113 132.611 C 127.272 132.611,127.291 132.557,127.172 132.439 C 126.919 132.185,126.963 131.996,127.250 132.106 C 127.388 132.159,127.500 132.165,127.500 132.119 C 127.500 132.034,127.018 131.813,126.979 131.880 M126.872 133.333 C 126.872 133.654,126.906 133.785,126.948 133.625 C 126.990 133.465,126.990 133.202,126.948 133.042 C 126.906 132.881,126.872 133.012,126.872 133.333 M130.592 133.986 C 130.530 134.086,129.979 134.172,129.365 134.178 C 128.588 134.187,128.351 134.233,128.583 134.333 C 128.834 134.441,128.721 134.479,128.125 134.488 C 127.378 134.499,127.081 134.704,127.542 134.890 C 127.702 134.954,127.700 134.977,127.532 134.987 C 127.412 134.994,127.362 135.078,127.420 135.172 C 127.487 135.281,127.367 135.316,127.097 135.267 C 126.860 135.224,126.667 135.259,126.667 135.344 C 126.667 135.430,126.779 135.500,126.917 135.500 C 127.054 135.500,127.167 135.579,127.167 135.677 C 127.167 135.774,127.242 135.807,127.333 135.750 C 127.425 135.693,127.500 135.764,127.500 135.907 C 127.500 136.050,127.408 136.167,127.296 136.167 C 126.876 136.167,127.796 136.646,128.345 136.713 C 128.832 136.772,128.813 136.781,128.214 136.775 C 127.433 136.766,127.130 136.936,127.505 137.173 C 128.165 137.591,130.776 137.359,131.184 136.846 C 131.397 136.578,131.631 136.395,131.703 136.439 C 131.775 136.483,131.838 136.459,131.845 136.385 C 131.946 135.168,131.916 134.667,131.741 134.667 C 131.631 134.667,131.447 134.553,131.332 134.415 C 131.188 134.241,131.060 134.214,130.922 134.329 C 130.783 134.444,130.722 134.425,130.722 134.266 C 130.722 134.074,130.979 134.035,131.333 134.174 C 131.379 134.192,131.478 134.195,131.554 134.182 C 131.630 134.169,131.637 134.247,131.570 134.355 C 131.491 134.483,131.520 134.507,131.655 134.424 C 131.918 134.262,131.709 134.055,131.143 133.915 C 130.890 133.852,130.656 133.883,130.592 133.986 M226.543 134.722 C 226.413 135.007,226.417 135.111,226.558 135.111 C 226.664 135.111,226.761 134.936,226.774 134.722 C 226.804 134.235,226.765 134.235,226.543 134.722 M126.888 137.917 C 126.889 138.558,126.919 138.800,126.955 138.455 C 126.991 138.109,126.990 137.584,126.954 137.288 C 126.917 136.992,126.887 137.275,126.888 137.917 M243.500 137.917 C 243.998 138.421,244.443 138.833,244.489 138.833 C 244.534 138.833,244.165 138.421,243.667 137.917 C 243.169 137.412,242.724 137.000,242.678 137.000 C 242.632 137.000,243.002 137.412,243.500 137.917 M130.333 139.105 C 130.104 139.135,129.323 139.180,128.597 139.205 C 127.723 139.235,127.254 139.320,127.208 139.458 C 127.170 139.573,127.225 139.667,127.329 139.667 C 127.434 139.667,127.466 139.580,127.401 139.474 C 127.327 139.355,127.355 139.327,127.474 139.401 C 127.580 139.466,127.666 139.684,127.664 139.885 C 127.662 140.183,127.631 140.204,127.497 140.000 C 127.360 139.790,127.309 139.787,127.185 139.980 C 127.103 140.107,126.947 140.154,126.835 140.085 C 126.682 139.990,126.676 140.039,126.811 140.291 C 126.908 140.474,126.941 140.670,126.883 140.728 C 126.825 140.786,126.959 140.842,127.181 140.853 C 127.539 140.871,127.528 140.887,127.083 141.000 L 126.583 141.127 127.083 141.167 L 127.583 141.206 127.083 141.333 L 126.583 141.461 127.083 141.500 L 127.583 141.539 127.083 141.667 C 126.701 141.764,126.877 141.803,127.833 141.835 L 129.083 141.876 128.000 142.027 C 127.404 142.110,126.615 142.149,126.246 142.114 C 125.823 142.073,125.497 142.133,125.364 142.275 C 125.188 142.463,125.612 142.500,127.975 142.500 L 130.796 142.500 131.184 142.012 C 131.397 141.744,131.631 141.561,131.703 141.606 C 131.775 141.650,131.838 141.626,131.845 141.552 C 131.969 140.067,131.937 139.811,131.638 139.889 C 131.253 139.990,131.247 139.850,131.625 139.572 C 131.901 139.368,131.900 139.351,131.608 139.238 C 131.415 139.163,131.245 139.205,131.152 139.351 C 131.034 139.537,131.005 139.525,131.003 139.292 C 131.001 139.131,130.944 139.011,130.875 139.025 C 130.806 139.039,130.563 139.075,130.333 139.105 M105.083 140.333 C 105.441 140.700,105.772 141.000,105.818 141.000 C 105.863 141.000,105.608 140.700,105.250 140.333 C 104.892 139.967,104.562 139.667,104.516 139.667 C 104.470 139.667,104.725 139.967,105.083 140.333 M247.083 141.333 C 247.535 141.792,247.942 142.167,247.987 142.167 C 248.033 142.167,247.701 141.792,247.250 141.333 C 246.799 140.875,246.392 140.500,246.346 140.500 C 246.300 140.500,246.632 140.875,247.083 141.333 M223.669 141.771 C 223.666 142.028,224.116 142.383,224.224 142.208 C 224.272 142.131,224.242 141.958,224.158 141.825 C 224.026 141.616,224.004 141.617,224.000 141.833 C 223.995 142.056,223.977 142.056,223.833 141.833 C 223.744 141.696,223.671 141.668,223.669 141.771 M116.583 142.333 L 115.917 142.453 116.532 142.476 C 116.870 142.489,117.193 142.425,117.250 142.333 C 117.307 142.242,117.330 142.177,117.302 142.190 C 117.273 142.203,116.950 142.268,116.583 142.333 " stroke="none" fill="#f3a42d" fill-rule="evenodd"/><path id="path4" d="M263.667 10.167 C 263.076 10.757,263.093 10.804,266.253 17.250 C 268.784 22.414,269.746 24.383,275.540 36.250 C 284.127 53.838,286.108 57.893,289.542 64.917 C 291.559 69.042,293.941 73.917,294.835 75.750 C 300.977 88.348,304.048 94.606,304.158 94.750 C 304.228 94.842,304.663 95.742,305.125 96.750 C 306.795 100.400,312.666 112.230,312.872 112.361 C 313.236 112.592,313.937 112.512,314.212 112.208 C 314.421 111.977,321.167 98.432,321.167 98.243 C 321.167 98.216,322.704 95.070,324.583 91.252 C 326.462 87.434,328.000 84.287,328.000 84.259 C 328.000 84.231,329.612 80.927,331.583 76.919 C 333.554 72.910,335.167 69.610,335.167 69.585 C 335.167 69.560,336.550 66.726,338.240 63.287 C 339.930 59.847,341.685 56.257,342.140 55.308 C 342.595 54.360,344.221 51.033,345.753 47.917 C 347.285 44.800,348.972 41.350,349.501 40.250 C 350.030 39.150,351.604 35.925,353.000 33.083 C 354.395 30.242,356.007 26.942,356.582 25.750 C 357.157 24.558,358.956 20.883,360.578 17.583 C 363.693 11.249,363.902 10.703,363.413 10.163 C 362.974 9.678,336.759 9.641,336.199 10.125 C 336.013 10.285,335.376 11.467,334.783 12.750 C 334.190 14.033,332.413 17.821,330.833 21.167 C 329.254 24.512,327.679 27.850,327.334 28.583 C 326.989 29.317,326.014 31.379,325.167 33.167 C 323.900 35.840,319.431 45.316,314.537 55.708 C 313.425 58.068,313.563 58.051,312.584 55.958 C 312.144 55.019,311.281 53.200,310.667 51.917 C 310.053 50.633,308.704 47.783,307.671 45.583 C 306.637 43.383,303.879 37.533,301.541 32.583 C 299.204 27.633,297.011 22.983,296.667 22.250 C 295.938 20.694,292.079 12.516,291.428 11.148 C 290.759 9.743,291.746 9.833,277.075 9.833 C 264.222 9.833,263.994 9.839,263.667 10.167 M228.987 129.804 C 228.804 130.037,228.694 130.330,228.742 130.456 C 228.797 130.598,228.757 130.639,228.636 130.565 C 228.509 130.486,228.478 130.536,228.546 130.712 C 228.602 130.859,228.587 131.002,228.511 131.031 C 228.257 131.128,227.321 133.178,227.438 133.382 C 227.501 133.493,227.491 133.526,227.414 133.457 C 227.274 133.329,226.817 134.343,226.781 134.863 C 226.771 135.016,226.707 135.108,226.639 135.066 C 226.468 134.961,226.129 135.637,226.252 135.837 C 226.308 135.927,226.289 136.000,226.210 136.000 C 226.055 136.000,225.575 137.163,225.637 137.387 C 225.658 137.463,225.606 137.482,225.522 137.430 C 225.328 137.310,225.129 137.804,225.275 138.041 C 225.345 138.153,225.304 138.168,225.164 138.082 C 225.004 137.983,224.973 138.021,225.050 138.223 C 225.108 138.375,225.100 138.500,225.031 138.500 C 224.884 138.500,224.438 139.492,224.453 139.790 C 224.458 139.903,224.404 139.960,224.332 139.916 C 224.155 139.806,223.972 140.319,224.109 140.541 C 224.173 140.645,224.139 140.669,224.026 140.599 C 223.918 140.533,223.832 140.576,223.831 140.698 C 223.830 140.818,223.789 141.067,223.740 141.250 C 223.691 141.433,223.767 141.733,223.909 141.917 L 224.167 142.250 224.072 141.917 C 224.002 141.671,224.044 141.692,224.233 142.000 C 224.373 142.229,224.491 142.345,224.494 142.258 C 224.497 142.171,224.590 142.190,224.700 142.300 C 224.914 142.514,226.035 142.576,226.227 142.385 C 226.290 142.321,226.501 142.245,226.696 142.215 C 227.105 142.153,227.523 141.675,227.421 141.386 C 227.383 141.277,227.408 141.165,227.476 141.136 C 227.543 141.107,227.760 140.754,227.957 140.352 L 228.314 139.620 229.855 139.654 C 231.560 139.692,231.654 139.746,231.994 140.879 C 232.098 141.226,232.253 141.466,232.340 141.413 C 232.426 141.360,232.457 141.418,232.409 141.544 C 232.140 142.244,235.051 142.849,235.677 142.223 C 235.906 141.994,236.016 140.988,235.838 140.750 C 235.769 140.658,235.663 140.374,235.601 140.118 C 235.533 139.832,235.418 139.698,235.303 139.769 C 235.198 139.834,235.161 139.811,235.220 139.716 C 235.277 139.623,235.149 139.180,234.935 138.732 C 234.721 138.283,234.259 137.317,233.909 136.583 C 233.558 135.850,233.210 135.225,233.134 135.194 C 233.059 135.163,233.041 135.069,233.093 134.984 C 233.146 134.899,232.959 134.427,232.678 133.936 C 232.397 133.445,232.167 132.916,232.167 132.762 C 232.167 132.591,232.091 132.527,231.974 132.599 C 231.855 132.673,231.827 132.645,231.901 132.526 C 232.013 132.345,231.244 130.701,230.944 130.481 C 230.868 130.425,230.822 130.350,230.844 130.315 C 230.912 130.201,230.649 129.501,230.530 129.481 C 229.655 129.336,229.296 129.411,228.987 129.804 M238.784 129.629 C 238.528 129.912,238.500 130.520,238.500 135.862 C 238.500 142.803,238.395 142.417,240.277 142.417 C 241.909 142.417,241.992 142.255,241.996 139.028 L 242.000 136.472 242.625 136.983 C 242.969 137.265,244.450 138.657,245.917 140.078 C 250.168 144.196,250.129 144.232,250.159 136.212 C 250.184 129.351,250.263 129.667,248.518 129.667 C 246.832 129.667,246.766 129.785,246.667 132.987 L 246.583 135.670 245.000 134.141 C 244.129 133.300,242.693 131.904,241.809 131.040 C 240.046 129.317,239.357 128.996,238.784 129.629 M258.123 129.625 C 257.979 129.785,257.320 131.079,256.659 132.500 C 255.998 133.921,254.829 136.425,254.062 138.065 C 252.342 141.739,252.313 142.158,253.756 142.429 C 255.367 142.731,256.119 142.285,256.851 140.595 L 257.250 139.672 258.838 139.670 L 260.426 139.667 260.891 140.735 C 261.595 142.351,262.653 142.860,264.227 142.341 C 265.441 141.940,265.483 142.096,262.309 135.276 C 259.389 128.999,259.070 128.570,258.123 129.625 M313.461 129.454 C 313.761 129.491,314.211 129.490,314.461 129.452 C 314.712 129.414,314.467 129.384,313.917 129.385 C 313.367 129.386,313.162 129.417,313.461 129.454 M213.745 129.842 C 213.690 129.930,213.762 130.047,213.905 130.102 C 214.048 130.157,214.126 130.264,214.080 130.339 C 214.033 130.415,214.071 130.524,214.164 130.582 C 214.459 130.764,214.379 132.341,214.081 132.226 C 213.901 132.157,213.859 132.206,213.933 132.398 C 213.989 132.546,214.095 132.667,214.167 132.667 C 214.571 132.667,214.777 130.632,214.404 130.322 C 214.275 130.216,214.207 130.070,214.251 129.999 C 214.295 129.927,214.222 129.826,214.088 129.775 C 213.954 129.723,213.799 129.753,213.745 129.842 M267.833 130.000 C 267.513 130.320,267.500 130.556,267.500 136.058 C 267.500 143.163,267.046 142.417,271.366 142.417 L 274.529 142.417 274.865 142.002 C 275.139 141.664,275.188 141.409,275.131 140.622 C 275.029 139.212,274.854 139.095,272.744 139.026 L 271.000 138.970 271.000 134.578 C 271.000 130.228,270.996 130.183,270.630 129.926 C 270.057 129.525,268.261 129.573,267.833 130.000 M275.816 130.017 C 275.291 130.542,275.446 130.939,277.405 134.101 L 279.167 136.944 279.167 139.363 C 279.167 142.332,279.218 142.417,281.009 142.417 C 282.588 142.417,282.568 142.454,282.671 139.367 L 282.759 136.750 284.139 134.624 C 284.898 133.455,285.482 132.439,285.437 132.366 C 285.392 132.294,285.432 132.125,285.527 131.992 C 285.666 131.795,285.681 131.804,285.604 132.042 C 285.459 132.492,285.605 132.389,285.986 131.772 C 286.830 130.407,286.366 129.667,284.667 129.667 C 283.306 129.667,283.180 129.755,282.075 131.499 C 280.921 133.319,281.052 133.315,279.984 131.572 C 278.890 129.788,278.718 129.667,277.296 129.667 C 276.370 129.667,276.103 129.730,275.816 130.017 M288.593 129.849 C 288.637 129.920,288.596 130.024,288.503 130.082 C 288.410 130.139,288.330 130.088,288.327 129.968 C 288.323 129.848,288.202 129.968,288.058 130.234 C 287.555 131.163,288.167 133.458,288.696 132.625 C 288.800 132.460,288.829 132.462,288.831 132.632 C 288.832 132.751,288.927 132.836,289.042 132.821 C 289.156 132.806,289.606 132.803,290.042 132.814 L 290.833 132.833 290.833 137.232 C 290.833 141.248,290.860 141.662,291.139 142.007 C 291.375 142.298,291.444 142.323,291.444 142.116 C 291.444 141.969,291.390 141.881,291.325 141.922 C 291.102 142.060,291.083 141.431,291.175 137.000 L 291.266 132.583 291.289 137.041 C 291.312 141.361,291.359 141.940,291.670 141.748 C 291.751 141.698,291.900 141.828,292.001 142.037 C 292.177 142.401,292.174 142.403,291.926 142.093 C 291.783 141.915,291.667 141.850,291.667 141.948 C 291.667 142.586,293.589 142.643,294.210 142.024 C 294.563 141.671,294.603 133.075,294.252 132.940 C 294.009 132.847,293.986 133.267,294.010 137.363 L 294.036 141.889 293.560 142.135 C 293.087 142.379,293.085 142.378,293.385 142.041 C 293.675 141.714,293.850 133.265,293.576 132.822 C 293.531 132.749,293.572 132.642,293.667 132.583 C 293.761 132.525,293.795 132.406,293.741 132.319 C 293.688 132.232,293.593 132.193,293.530 132.231 C 293.468 132.270,293.402 131.954,293.385 131.529 C 293.366 131.081,293.436 130.705,293.552 130.631 C 293.663 130.560,293.458 130.494,293.083 130.479 L 292.417 130.453 293.083 130.333 C 293.450 130.268,293.587 130.203,293.389 130.190 C 293.190 130.177,293.003 130.101,292.972 130.021 C 292.942 129.942,291.926 129.841,290.715 129.799 C 289.505 129.756,288.550 129.779,288.593 129.849 M296.556 129.907 C 296.556 130.042,296.626 130.108,296.713 130.055 C 296.991 129.883,297.161 130.390,297.164 131.395 C 297.166 132.195,297.126 132.340,296.943 132.189 C 296.639 131.936,296.452 132.158,296.708 132.467 C 296.883 132.677,296.858 132.697,296.540 132.596 C 296.335 132.531,296.167 132.545,296.167 132.628 C 296.167 132.865,296.722 132.813,297.030 132.546 C 297.375 132.246,297.550 131.246,297.369 130.598 C 297.215 130.044,296.556 129.485,296.556 129.907 M198.867 133.125 C 198.835 135.386,198.778 135.663,198.405 135.375 C 198.316 135.306,198.395 135.390,198.580 135.561 C 198.962 135.915,199.079 134.822,198.957 132.042 C 198.923 131.265,198.887 131.696,198.867 133.125 M202.408 136.250 C 202.408 139.275,202.430 140.536,202.458 139.052 C 202.486 137.568,202.486 135.093,202.458 133.552 C 202.431 132.011,202.408 133.225,202.408 136.250 M300.036 136.125 C 300.071 141.412,300.127 140.814,300.207 134.292 C 300.231 132.389,300.194 130.833,300.125 130.833 C 300.056 130.833,300.016 133.215,300.036 136.125 M294.089 132.323 C 293.880 132.662,294.192 132.833,294.968 132.807 C 295.634 132.784,295.663 132.770,295.167 132.714 C 294.846 132.678,294.497 132.535,294.391 132.397 C 294.265 132.234,294.161 132.208,294.089 132.323 M194.067 138.917 C 194.068 140.383,194.093 140.961,194.124 140.200 C 194.155 139.440,194.155 138.240,194.124 137.534 C 194.093 136.828,194.067 137.450,194.067 138.917 M194.833 136.917 C 195.144 137.237,195.436 137.500,195.482 137.500 C 195.528 137.500,195.311 137.237,195.000 136.917 C 194.689 136.596,194.397 136.333,194.351 136.333 C 194.305 136.333,194.522 136.596,194.833 136.917 M184.958 139.118 C 185.165 139.157,185.502 139.157,185.708 139.118 C 185.915 139.078,185.746 139.045,185.333 139.045 C 184.921 139.045,184.752 139.078,184.958 139.118 M309.000 140.917 C 309.311 141.237,309.603 141.500,309.649 141.500 C 309.695 141.500,309.478 141.237,309.167 140.917 C 308.856 140.596,308.564 140.333,308.518 140.333 C 308.472 140.333,308.689 140.596,309.000 140.917 M208.167 141.674 C 208.167 141.767,208.279 141.887,208.416 141.939 C 208.553 141.992,208.623 142.102,208.573 142.184 C 208.522 142.266,208.560 142.333,208.657 142.333 C 208.932 142.333,208.865 142.101,208.500 141.789 C 208.317 141.632,208.167 141.580,208.167 141.674 M293.128 141.897 C 292.969 142.018,292.887 142.165,292.947 142.225 C 293.007 142.284,292.889 142.333,292.685 142.333 C 292.481 142.333,292.356 142.265,292.408 142.181 C 292.460 142.097,292.408 141.985,292.293 141.932 C 292.178 141.880,292.233 141.872,292.417 141.914 C 292.600 141.957,292.862 141.920,293.000 141.832 C 293.369 141.595,293.462 141.643,293.128 141.897 M301.627 142.451 C 301.834 142.491,302.134 142.490,302.294 142.448 C 302.453 142.406,302.283 142.374,301.917 142.375 C 301.550 142.377,301.420 142.411,301.627 142.451 " stroke="none" fill="#94cb43" fill-rule="evenodd"/></g></svg>